<?xml version="1.0" encoding="UTF-8" standalone="no"?>
<!DOCTYPE svg PUBLIC "-//W3C//DTD SVG 20010904//EN"
              "http://www.w3.org/TR/2001/REC-SVG-20010904/DTD/svg10.dtd">

<svg xmlns="http://www.w3.org/2000/svg"
     width="180.6mm" height="180.6mm"
     viewBox="0 0 512 512">
  <path id="Selection"
        fill="none" stroke="black" stroke-width="1"
        d="M 39.00,126.00
           C 38.88,136.28 31.87,136.53 26.85,144.00
             21.53,151.93 24.11,159.80 21.83,163.89
             20.12,166.95 16.60,168.05 14.09,170.27
             10.32,173.61 7.30,179.01 6.48,184.00
             5.29,191.20 9.89,204.79 9.53,208.00
             9.15,211.29 5.11,216.33 3.52,220.00
             0.88,226.10 0.20,235.54 1.68,242.00
             2.75,246.65 5.93,253.19 9.33,256.53
             11.96,259.13 16.31,261.18 17.30,263.82
             18.45,265.69 17.04,273.08 17.30,276.00
             17.30,276.00 17.30,291.00 17.30,291.00
             17.30,291.00 19.66,298.00 19.66,298.00
             20.21,301.35 18.03,303.26 18.74,305.79
             19.69,309.21 27.00,310.88 27.72,315.97
             28.14,319.00 24.95,321.03 23.21,323.09
             20.71,326.06 19.95,328.12 20.10,332.00
             20.10,332.00 22.71,347.00 22.71,347.00
             23.21,350.80 23.52,359.77 24.73,363.00
             26.29,367.15 29.94,369.38 31.28,375.00
             32.63,380.68 28.86,387.61 33.72,394.99
             39.64,403.96 48.82,402.30 53.26,409.04
             55.22,412.02 54.91,415.66 55.68,419.00
             56.69,423.39 59.23,428.53 62.33,431.82
             70.41,440.40 81.72,439.52 88.00,442.68
             96.68,447.07 96.40,454.02 110.00,458.91
             115.85,461.02 121.86,461.52 128.00,460.56
             128.00,460.56 138.96,458.61 138.96,458.61
             143.12,459.05 142.98,462.36 150.00,464.56
             150.00,464.56 173.00,468.93 173.00,468.93
             184.81,472.23 192.67,483.58 202.00,490.58
             208.95,495.81 214.28,492.90 218.99,494.74
             222.98,496.30 224.20,499.63 228.04,501.91
             230.91,503.62 240.50,505.55 244.00,505.70
             248.37,506.15 250.35,504.85 254.00,505.70
             259.66,506.73 267.12,511.82 280.00,509.68
             283.43,509.10 289.03,507.17 291.83,505.15
             294.20,503.45 295.96,500.76 299.01,500.33
             299.01,500.33 308.00,501.83 308.00,501.83
             313.95,502.47 324.70,502.37 330.00,499.56
             339.14,494.71 338.59,485.03 346.02,481.31
             349.72,479.46 354.03,480.23 358.00,479.91
             363.03,479.50 369.17,477.22 372.91,473.79
             376.39,470.60 382.84,460.51 384.39,456.00
             386.03,451.23 385.37,445.67 389.23,442.58
             392.16,440.23 396.36,440.83 401.00,438.00
             406.94,434.38 409.77,428.17 413.17,425.31
             417.12,422.00 419.67,423.86 422.31,421.40
             423.44,420.34 431.99,404.04 437.04,400.85
             442.91,397.16 451.41,400.81 455.73,397.40
             459.06,394.77 458.35,390.41 464.30,384.17
             469.15,379.08 474.09,377.76 479.52,371.00
             484.94,364.25 482.79,362.19 486.31,358.32
             489.30,355.03 494.90,353.34 497.90,345.00
             499.60,340.25 500.27,334.03 499.91,329.00
             499.74,326.55 498.54,322.67 499.41,320.57
             500.61,317.68 506.71,312.91 509.30,309.00
             512.23,304.58 512.05,300.06 512.00,295.00
             511.87,284.31 508.56,283.08 508.12,277.00
             508.12,277.00 510.00,258.00 510.00,258.00
             509.91,250.26 508.05,241.96 502.79,236.04
             498.87,231.62 494.14,229.56 492.17,225.91
             492.17,225.91 489.32,201.00 489.32,201.00
             487.33,192.40 482.70,191.16 480.74,186.00
             477.73,178.07 483.80,172.58 483.95,165.00
             484.12,155.87 478.34,154.11 476.91,149.00
             475.75,144.89 479.11,134.54 477.57,129.01
             476.22,124.19 472.29,123.36 470.59,118.99
             470.59,118.99 469.21,112.00 469.21,112.00
             468.05,107.94 462.67,96.01 459.79,93.23
             454.26,87.89 449.80,91.98 446.01,86.77
             443.31,83.07 444.68,78.86 441.91,74.00
             440.52,71.55 438.04,68.99 436.00,67.04
             427.96,59.39 423.13,61.13 413.00,61.00
             400.41,60.82 402.03,52.99 392.00,45.42
             387.60,42.10 376.61,40.41 371.00,40.09
             363.33,39.65 357.54,42.87 353.00,42.74
             346.44,42.55 342.68,38.02 328.00,38.00
             323.98,37.99 316.43,38.54 313.00,36.83
             306.90,33.78 302.16,25.60 296.96,21.39
             289.81,15.59 284.03,18.65 281.00,7.00
             273.88,7.55 274.04,9.82 270.00,10.28
             267.79,10.52 261.71,8.86 259.00,8.44
             259.00,8.44 247.00,7.68 247.00,7.68
             239.64,6.45 233.96,1.60 228.00,2.25
             219.04,3.22 215.84,14.20 209.00,15.94
             206.03,16.69 202.87,14.60 200.00,13.79
             200.00,13.79 185.00,12.09 185.00,12.09
             169.70,11.23 168.40,20.69 158.00,28.22
             151.25,33.10 137.25,39.00 132.47,44.18
             125.55,51.67 128.70,56.47 121.81,63.96
             116.41,69.84 111.21,69.93 105.34,77.01
             99.05,84.60 101.00,91.99 95.78,96.57
             91.30,100.49 85.07,98.15 77.00,99.62
             74.75,100.03 71.24,101.18 69.10,100.45
             66.04,99.42 62.48,92.23 58.61,95.07
             55.23,97.54 60.60,103.03 59.53,108.00
             58.81,111.32 48.96,122.47 45.96,124.12
             44.28,125.05 41.03,125.45 39.00,126.00 Z
           M 234.00,43.51
           C 240.25,42.70 250.85,42.74 257.00,43.51
             260.46,44.29 263.92,44.85 264.58,49.02
             265.25,53.19 259.77,61.48 257.50,65.00
             250.94,75.18 254.16,76.79 250.57,80.61
             247.91,83.45 243.40,84.25 240.00,85.99
             234.60,88.77 230.08,93.59 227.38,99.00
             225.62,102.52 224.54,107.06 224.75,111.00
             224.88,113.64 225.98,116.43 225.40,119.00
             224.55,122.74 220.69,126.02 218.38,129.00
             215.90,132.22 213.05,138.04 212.08,142.00
             210.47,148.56 214.30,149.93 213.49,156.00
             212.52,163.27 207.53,165.94 208.20,173.00
             208.77,179.12 212.51,181.65 211.89,189.00
             211.39,195.01 207.77,197.46 208.75,202.00
             209.57,205.77 213.39,209.18 215.82,212.00
             215.82,212.00 225.03,225.00 225.03,225.00
             227.56,228.57 228.77,233.60 222.96,234.63
             219.22,235.29 215.24,231.50 212.00,229.82
             212.00,229.82 199.04,225.00 199.04,225.00
             195.27,223.02 193.96,220.70 190.96,218.13
             185.00,213.02 181.36,216.26 176.34,211.58
             172.98,208.46 172.37,203.92 169.87,200.00
             165.98,193.91 161.88,192.70 159.01,187.99
             156.01,183.08 157.95,180.06 155.08,174.00
             152.11,167.71 147.14,165.76 146.24,160.00
             144.52,149.04 153.35,146.64 155.83,141.96
             157.41,138.96 157.04,132.51 157.00,129.00
             157.00,129.00 155.51,116.00 155.51,116.00
             156.20,111.85 159.77,109.45 161.32,103.00
             162.55,97.86 161.66,94.04 164.99,89.09
             167.77,84.97 171.19,84.38 175.47,78.99
             179.64,73.74 181.20,67.84 187.02,63.85
             192.48,60.10 202.49,58.80 206.98,56.44
             213.08,53.25 211.07,49.57 214.43,46.74
             217.18,44.42 229.81,43.89 234.00,43.51 Z
           M 346.00,85.81
           C 351.49,85.92 353.39,88.70 358.00,91.09
             361.62,92.96 365.94,93.80 370.00,93.96
             378.96,94.31 382.79,91.23 385.95,91.92
             390.77,92.99 390.16,99.43 397.02,104.57
             403.06,109.10 409.06,105.37 413.79,108.17
             417.53,110.39 417.43,114.69 421.53,120.00
             429.65,130.50 435.47,125.46 435.56,134.00
             435.65,142.49 439.19,145.64 442.12,153.00
             443.15,155.59 444.26,159.01 440.84,160.36
             436.78,161.96 424.73,156.50 420.00,155.52
             411.25,153.70 410.15,159.19 403.00,157.44
             397.43,156.07 394.49,151.67 390.00,149.45
             386.19,147.56 381.20,147.98 377.00,148.00
             371.85,148.02 368.84,148.26 364.00,150.34
             361.54,151.39 357.25,154.00 355.00,154.40
             351.88,154.96 349.02,153.24 346.00,152.77
             342.73,152.26 336.22,153.12 333.00,154.04
             329.60,155.01 325.85,156.25 323.04,158.41
             320.51,160.35 318.94,162.87 315.91,164.11
             311.08,166.09 304.22,163.83 299.00,166.09
             290.35,169.82 288.58,177.70 285.59,180.69
             282.14,184.12 279.57,182.10 274.04,187.13
             270.12,190.70 263.16,200.33 260.08,205.00
             258.72,207.05 256.55,211.48 253.86,211.75
             251.27,212.01 249.30,209.15 248.97,206.96
             247.92,203.77 249.51,200.71 248.97,197.00
             248.97,197.00 246.42,187.00 246.42,187.00
             246.42,187.00 249.62,169.00 249.62,169.00
             249.78,165.02 248.12,162.51 248.78,160.21
             249.78,156.75 254.14,156.68 256.52,150.00
             259.19,142.52 256.75,136.66 259.74,133.60
             262.59,130.68 267.73,133.68 273.47,126.90
             280.08,119.08 276.31,111.01 283.11,107.17
             287.00,104.98 295.69,105.72 300.00,103.99
             302.81,102.87 304.53,101.11 307.00,99.69
             307.00,99.69 320.00,93.71 320.00,93.71
             325.31,91.72 332.63,92.40 336.00,91.35
             339.70,90.19 342.26,87.37 346.00,85.81 Z
           M 89.00,130.58
           C 96.08,131.33 93.32,137.04 93.10,142.00
             92.93,145.88 94.01,152.68 96.01,156.00
             98.84,160.71 103.04,162.30 104.49,167.01
             106.53,173.67 102.74,180.16 103.34,186.00
             104.05,192.91 108.41,199.05 114.00,202.91
             117.45,205.29 122.94,207.73 125.26,211.10
             128.88,216.36 125.71,222.58 132.11,228.87
             135.30,232.01 140.57,234.26 145.00,234.82
             147.97,235.19 151.16,234.67 153.90,236.17
             158.38,238.65 159.02,244.62 166.00,249.01
             168.85,250.80 173.71,252.24 177.00,253.33
             196.17,259.72 198.59,258.96 218.00,259.00
             229.38,259.02 228.67,263.14 222.06,271.00
             222.06,271.00 215.61,279.27 215.61,279.27
             213.14,281.25 210.38,280.89 207.09,283.01
             204.22,284.85 202.67,287.58 199.96,288.98
             196.05,291.00 190.25,289.12 186.00,290.74
             181.27,292.54 178.66,297.60 173.00,299.35
             168.15,300.85 164.74,298.61 160.00,299.35
             154.47,300.19 152.17,303.75 146.00,302.62
             140.81,301.67 136.74,298.17 131.00,297.30
             125.53,296.48 121.79,298.33 118.00,297.84
             111.03,296.93 109.09,288.68 99.00,283.07
             94.66,280.66 86.66,279.76 83.93,275.78
             81.69,272.51 82.08,265.82 79.00,261.09
             76.95,257.95 71.23,253.47 68.00,251.47
             65.46,249.89 61.55,248.38 60.02,245.79
             57.93,242.24 60.18,228.76 61.72,225.04
             63.08,221.77 65.79,220.31 65.38,218.12
             64.63,214.12 55.57,213.94 53.83,208.89
             52.82,205.98 54.97,200.19 55.54,197.00
             55.54,197.00 56.65,180.00 56.65,180.00
             58.23,174.98 61.59,173.97 64.62,168.00
             67.53,162.27 67.46,156.89 69.45,153.00
             71.55,148.89 76.93,144.29 80.07,140.00
             83.27,135.63 83.55,132.51 89.00,130.58 Z
           M 354.00,194.41
           C 364.06,192.98 365.00,196.82 373.00,197.82
             375.24,198.10 380.65,197.60 382.17,198.99
             384.68,201.28 380.87,208.83 385.29,210.75
             388.33,212.07 390.40,207.94 394.04,207.41
             394.04,207.41 410.00,211.33 410.00,211.33
             420.27,214.60 428.38,230.70 437.01,237.72
             443.25,242.80 447.60,239.38 451.26,244.23
             455.31,249.59 450.40,256.06 453.76,268.00
             456.28,276.95 460.95,275.91 461.50,280.13
             462.05,284.35 457.06,288.91 456.43,294.00
             455.46,301.78 460.57,314.54 459.79,320.00
             458.95,325.82 454.54,329.29 451.68,334.00
             450.42,336.08 449.76,338.67 448.28,340.37
             446.34,342.59 444.40,342.56 441.47,347.04
             436.76,354.23 437.69,362.26 429.00,366.69
             425.21,368.62 420.02,367.72 419.00,362.98
             418.26,359.57 421.24,358.54 420.99,348.00
             420.84,342.00 419.50,338.35 414.96,334.21
             412.42,331.90 407.78,329.79 406.61,326.82
             404.80,322.20 409.88,315.28 406.01,306.00
             403.65,300.34 398.38,295.22 393.00,292.40
             390.34,291.01 385.62,289.97 384.02,287.58
             381.96,284.52 383.15,273.83 378.86,267.00
             375.42,261.54 371.15,259.58 365.00,258.46
             362.62,258.03 358.20,258.19 356.43,256.98
             354.12,255.40 354.10,252.36 353.13,250.00
             351.87,246.98 349.87,244.73 347.00,243.14
             342.15,240.45 336.06,240.79 331.00,238.86
             325.30,236.68 324.29,233.36 314.00,231.62
             306.71,230.39 307.14,233.13 299.00,230.79
             292.46,228.90 284.00,233.27 283.74,225.98
             283.49,219.12 294.17,214.68 299.00,212.18
             302.40,210.42 305.37,207.89 309.00,206.61
             309.00,206.61 322.00,203.44 322.00,203.44
             322.00,203.44 331.00,199.41 331.00,199.41
             331.00,199.41 343.00,198.53 343.00,198.53
             346.95,197.77 350.24,195.69 354.00,194.41 Z
           M 284.00,258.00
           C 284.00,258.00 288.00,264.00 288.00,264.00
             290.35,262.90 294.07,259.89 296.09,259.94
             298.02,259.98 300.43,261.63 302.00,262.68
             308.43,266.96 309.81,269.39 310.00,277.00
             310.00,277.00 318.00,274.30 318.00,274.30
             320.03,274.35 322.21,276.04 324.00,276.96
             327.41,278.71 335.21,280.50 337.10,282.70
             339.13,285.06 338.95,290.85 342.65,295.98
             346.80,301.76 351.86,302.14 354.28,308.00
             354.28,308.00 357.25,325.00 357.25,325.00
             360.01,333.02 365.91,334.31 366.30,339.01
             366.51,341.62 363.94,345.50 362.88,348.00
             361.02,352.38 360.90,355.32 361.01,360.00
             361.23,368.59 364.23,368.96 365.17,373.00
             366.38,378.14 358.87,384.95 356.04,389.00
             350.38,397.11 351.05,399.70 351.00,409.00
             350.98,412.18 351.11,415.95 348.99,418.57
             345.66,422.72 340.31,420.08 333.09,427.10
             324.92,435.04 325.34,441.28 321.73,444.57
             317.97,447.99 310.54,446.70 305.00,448.68
             298.29,451.08 289.48,459.88 287.00,460.88
             287.00,460.88 272.00,460.09 272.00,460.09
             263.47,460.71 261.78,464.26 258.00,464.95
             254.93,465.52 251.97,463.58 248.00,463.44
             248.00,463.44 237.00,463.44 237.00,463.44
             230.82,462.95 227.37,460.50 222.00,458.47
             215.28,455.91 209.89,458.00 207.00,450.00
             213.87,450.02 225.87,453.39 231.00,450.83
             236.41,448.12 246.28,436.86 248.44,431.00
             250.45,425.57 249.52,421.53 251.85,418.21
             253.73,415.54 258.15,413.69 261.00,411.98
             265.62,409.22 269.25,406.21 272.66,402.00
             279.05,394.12 279.14,384.73 281.16,381.04
             282.81,378.02 286.12,375.90 288.47,372.96
             291.81,368.80 293.49,364.16 294.55,359.00
             295.13,356.17 295.94,351.82 295.66,349.00
             295.41,346.50 293.94,342.39 294.40,340.14
             295.10,336.76 298.37,337.00 300.40,334.57
             302.02,332.65 301.95,330.37 302.00,328.00
             302.07,323.76 302.17,319.03 300.74,315.00
             298.38,308.34 296.13,310.00 296.00,301.00
             295.95,296.75 296.50,291.88 294.55,288.00
             292.49,283.94 289.35,282.33 287.23,278.91
             284.93,275.23 282.53,262.03 284.00,258.00 Z
           M 257.00,278.00
           C 260.59,286.62 257.94,290.28 259.82,299.00
             260.57,302.51 262.95,306.78 262.20,310.00
             261.30,313.84 255.38,319.61 256.22,327.00
             256.61,330.41 258.50,333.25 258.24,336.00
             257.94,339.25 254.24,343.06 252.48,346.00
             248.14,353.26 249.49,357.90 244.78,362.87
             241.03,366.82 236.31,367.24 232.34,371.33
             226.81,377.03 229.23,383.84 224.58,388.61
             219.30,394.03 212.34,390.69 207.00,392.85
             202.31,394.75 198.82,400.21 191.00,404.48
             183.14,408.79 177.51,407.99 169.00,408.00
             163.56,408.01 155.19,410.58 151.74,405.85
             149.15,402.32 150.76,397.43 148.42,395.91
             146.68,394.79 145.20,396.63 144.60,398.08
             143.29,401.22 145.13,407.90 141.57,409.62
             139.28,410.71 134.39,408.16 132.00,407.36
             122.20,404.06 116.16,405.81 115.00,395.00
             102.68,395.88 107.07,393.49 98.00,388.00
             93.05,385.00 88.57,385.74 85.33,383.27
             85.33,383.27 75.96,371.00 75.96,371.00
             72.74,367.57 66.38,361.70 65.52,357.00
             65.07,354.55 66.04,352.39 66.20,350.00
             66.50,345.58 64.17,341.34 66.75,338.60
             70.70,334.40 78.83,339.81 83.00,340.17
             87.18,340.53 97.81,336.80 103.00,336.00
             110.60,346.92 114.35,348.81 127.00,350.23
             130.75,350.57 134.25,351.58 138.00,350.23
             143.39,348.46 145.05,343.81 149.01,342.77
             152.25,341.92 157.82,344.82 165.00,344.99
             169.60,345.09 175.01,344.92 178.96,342.28
             182.73,339.75 184.11,336.01 189.00,334.01
             192.75,332.47 201.30,333.19 207.00,330.78
             216.40,326.80 217.28,319.22 220.30,316.56
             223.24,313.96 227.13,314.59 232.78,307.98
             238.01,301.86 235.98,297.82 238.74,294.23
             242.00,289.98 245.97,292.56 249.30,288.71
             252.97,284.46 250.48,281.47 257.00,278.00 Z" />
</svg>
